<?xml version="1.0" standalone="no"?><!DOCTYPE svg PUBLIC "-//W3C//DTD SVG 1.1//EN" "http://www.w3.org/Graphics/SVG/1.1/DTD/svg11.dtd"><svg t="1709945229733" class="icon" viewBox="0 0 1024 1024" version="1.1" xmlns="http://www.w3.org/2000/svg" p-id="4255" xmlns:xlink="http://www.w3.org/1999/xlink" width="200" height="200"><path d="M928.01024 560.57856c0-8.82688-7.168-15.99488-15.99488-15.99488l-432.00512 0 0-432.57856c0-8.82688-7.168-15.99488-15.99488-15.99488-255.83616 0-463.99488 207.83104-463.99488 463.31904 0 264.88832 199.7824 464.67072 464.67072 464.67072 246.82496 0 463.31904-216.576 463.31904-463.42144zM32.01024 559.32928c0-232.50944 185.18016-422.58432 416.01024-431.04256l0 432.29184c0 8.82688 7.168 15.99488 15.99488 15.42144l431.67744 0c-9.05216 223.68256-206.56128 416.01024-431.0016 416.01024-246.66112 0-432.68096-185.97888-432.68096-432.68096zM560.00512 480.01024l447.95904 0c8.82688 0.57344 16.03584-7.168 16.03584-15.99488 0-255.83616-208.15872-463.99488-463.99488-463.99488-8.82688 0-15.99488 7.168-15.99488 15.99488l0 448.57344c0 8.82688 7.168 15.99488 15.99488 15.42144zM576 32.29696c226.01728 8.2944 408.28928 191.03744 415.80544 416.29696l-415.80544 0 0-416.29696z" fill="#444444" p-id="4256"></path></svg>